<?xml version="1.0" encoding="UTF-8" standalone="no"?>
<!DOCTYPE svg PUBLIC "-//W3C//DTD SVG 1.1//EN" "http://www.w3.org/Graphics/SVG/1.1/DTD/svg11.dtd">
<svg width="100%" height="100%" viewBox="0 0 1000 1000" version="1.1" xmlns="http://www.w3.org/2000/svg" xmlns:xlink="http://www.w3.org/1999/xlink" xml:space="preserve" style="fill-rule:evenodd;clip-rule:evenodd;stroke-linejoin:round;stroke-miterlimit:1.41421;">
    <g transform="matrix(1,0,0,1,-2091,-2214)">
        <g id="Ring-Icon" transform="matrix(1,0,0,1,-1,2214)">
            <rect x="2092" y="0" width="1000" height="1000" style="fill:none;"/>
            <g transform="matrix(1,0,0,1,0,-2214)">
                <path d="M2808.02,3155.36L2679.33,3155.36L2640.79,3040.87C2654.23,3033.42 2667.51,3025.68 2680.63,3017.66C2683.43,3015.95 2686.23,3014.22 2689.02,3012.48C2690.95,3011.28 2692.87,3010.07 2694.79,3008.86C2696.05,3008.06 2697.3,3007.26 2698.55,3006.46C2703.33,3003.74 2708.07,3000.98 2712.79,2998.18C2718.69,2994.68 2724.56,2991.13 2730.39,2987.53C2735.53,2984.36 2740.63,2981.15 2745.72,2977.9C2747.4,2976.82 2749.09,2975.74 2750.77,2974.65C2751.59,2974.12 2752.41,2973.59 2753.23,2973.05C2754.31,2972.34 2755.39,2971.63 2756.46,2970.91C2758.38,2969.64 2760.29,2968.36 2762.2,2967.08C2769,2962.5 2775.75,2957.85 2782.45,2953.12C2791.06,2947.05 2799.59,2940.85 2808.02,2934.52L2808.02,3155.36ZM2499.98,3155.36L2375.98,3155.36L2375.98,3135.9C2387.58,3134.28 2399.13,3132.25 2410.6,3129.89C2424.33,3127.06 2437.96,3123.74 2451.47,3120.01C2467.81,3115.5 2483.99,3110.39 2499.98,3104.76L2499.98,3155.36ZM2684.02,2335.63L2808.02,2335.63L2808.02,2831.62C2805.89,2833.69 2803.75,2835.75 2801.6,2837.8C2800.61,2838.75 2799.61,2839.69 2798.62,2840.63C2796.88,2842.3 2795.13,2843.97 2793.38,2845.64C2790.86,2848.03 2788.33,2850.41 2785.78,2852.77C2778.93,2859.14 2771.99,2865.4 2764.97,2871.57C2754.35,2880.89 2743.54,2889.99 2732.55,2898.86C2726.51,2903.73 2720.41,2908.53 2714.26,2913.28C2713.33,2914 2712.39,2914.72 2711.45,2915.45C2709.78,2916.74 2708.11,2918.03 2706.43,2919.31C2702.96,2921.96 2699.48,2924.59 2695.98,2927.2C2689.89,2931.74 2683.75,2936.22 2677.57,2940.63C2674.62,2942.73 2671.67,2944.81 2668.7,2946.88C2666.94,2948.1 2665.19,2949.32 2663.43,2950.54L2662.96,2950.83L2662.11,2951.35C2658.39,2953.62 2654.67,2955.89 2650.93,2958.12C2643.26,2962.71 2635.52,2967.19 2627.73,2971.58C2624.86,2973.2 2621.97,2974.8 2619.09,2976.39L2570.21,2831.17L2499.98,2622.54L2499.98,3031.29C2498.7,3031.77 2497.41,3032.24 2496.12,3032.71C2477,3039.68 2457.61,3045.9 2437.96,3051.17C2422.55,3055.3 2406.99,3058.85 2391.29,3061.65C2386.2,3062.56 2381.09,3063.4 2375.98,3064.14L2375.98,2335.63L2511.7,2335.63L2684.02,2842.69L2684.02,2335.63Z"/>
            </g>
            <g transform="matrix(1,0,0,1,0,-2214)">
                <path d="M2817.35,2359.37C2825.93,2358.49 2834.53,2357.85 2843.14,2357.47C2848.13,2357.25 2853.13,2357.12 2858.12,2357.08C2859.16,2357.08 2860.21,2357.07 2861.25,2357.07C2865.42,2357.08 2869.59,2357.15 2873.75,2357.3C2886.15,2357.74 2898.53,2358.83 2910.79,2360.72C2923.45,2362.66 2935.99,2365.47 2948.21,2369.31C2957.29,2372.17 2966.18,2375.59 2974.79,2379.66C2984.99,2384.48 2994.78,2390.21 3003.89,2396.88C3008.33,2400.13 3012.62,2403.6 3016.71,2407.29C3018.81,2409.18 3020.87,2411.13 3022.86,2413.14C3027.25,2417.56 3031.37,2422.25 3035.19,2427.17C3041.82,2435.71 3047.53,2444.95 3052.24,2454.68C3055.6,2461.63 3058.45,2468.83 3060.78,2476.18C3062.5,2481.59 3063.95,2487.08 3065.13,2492.63C3066,2496.73 3066.73,2500.86 3067.31,2505.01C3067.76,2508.21 3068.14,2511.43 3068.43,2514.66C3070.21,2534.43 3068.98,2554.4 3065.65,2573.94C3065.15,2576.86 3064.61,2579.76 3064.02,2582.66C3063.27,2586.34 3062.46,2589.99 3061.57,2593.64C3060.36,2598.66 3059.01,2603.66 3057.56,2608.62C3055.63,2615.17 3053.51,2621.66 3051.22,2628.1C3049.91,2631.76 3048.55,2635.4 3047.14,2639.01C3046.67,2640.22 3046.19,2641.42 3045.71,2642.62C3045.5,2643.14 3045.3,2643.65 3045.09,2644.16C3044.64,2645.25 3044.18,2646.33 3043.72,2647.41C3042.49,2650.3 3041.23,2653.19 3039.93,2656.06C3034.99,2667 3029.62,2677.75 3023.88,2688.3C3020.2,2695.07 3016.36,2701.77 3012.4,2708.38C3011.22,2710.35 3010.03,2712.31 3008.83,2714.26C3008.37,2715.01 3007.91,2715.75 3007.45,2716.49C3007.23,2716.85 3007.02,2717.2 3006.79,2717.55C3006.02,2718.78 3005.23,2720 3004.44,2721.22C3002.51,2724.2 3000.55,2727.18 2998.57,2730.13C2989.82,2743.15 2980.6,2755.85 2970.99,2768.25C2968.4,2771.59 2965.79,2774.91 2963.14,2778.2C2961.49,2780.26 2959.83,2782.3 2958.16,2784.35L2957.68,2784.94C2955.83,2787.15 2953.97,2789.35 2952.09,2791.54C2947.75,2796.61 2943.34,2801.64 2938.88,2806.61C2921.7,2825.73 2903.65,2844.07 2884.91,2861.67C2876.73,2869.36 2868.42,2876.9 2859.98,2884.3C2857.29,2886.66 2854.59,2889.01 2851.88,2891.34C2850.36,2892.64 2848.85,2893.94 2847.32,2895.23C2846.59,2895.84 2845.86,2896.45 2845.12,2897.06C2843.97,2898.01 2842.83,2898.96 2841.68,2899.9C2837.88,2903.02 2834.06,2906.12 2830.22,2909.19C2818.36,2918.66 2806.3,2927.88 2794.05,2936.84C2783.9,2944.27 2773.62,2951.52 2763.22,2958.59C2760.14,2960.69 2757.05,2962.76 2753.95,2964.83C2752.53,2965.77 2751.12,2966.72 2749.69,2967.65C2748.89,2968.18 2748.08,2968.7 2747.27,2969.23C2745.59,2970.31 2743.92,2971.39 2742.24,2972.47C2737.53,2975.47 2732.81,2978.45 2728.06,2981.39C2722.43,2984.87 2716.77,2988.3 2711.09,2991.69C2706.86,2994.2 2702.63,2996.68 2698.37,2999.13C2697.32,2999.74 2696.27,3000.34 2695.22,3000.93C2693.93,3001.76 2692.63,3002.58 2691.34,3003.4C2688.79,3005.01 2686.24,3006.61 2683.68,3008.2C2664.16,3020.32 2644.27,3031.82 2624.01,3042.65C2603.92,3053.38 2583.47,3063.45 2562.68,3072.74C2543.67,3081.24 2524.37,3089.09 2504.79,3096.19C2485.47,3103.19 2465.87,3109.45 2446.03,3114.81C2433.07,3118.31 2420,3121.41 2406.83,3124.07C2391.97,3127.06 2376.99,3129.48 2361.92,3131.18C2350,3132.52 2338.02,3133.41 2326.03,3133.76C2314.34,3134.09 2302.63,3133.91 2290.97,3133.1C2286.25,3132.77 2281.54,3132.33 2276.85,3131.79C2272.99,3131.34 2269.15,3130.81 2265.32,3130.21C2261.72,3129.64 2258.14,3129 2254.57,3128.28C2251.83,3127.73 2249.09,3127.13 2246.37,3126.49C2229.39,3122.47 2212.78,3116.6 2197.35,3108.4C2194.5,3106.89 2191.7,3105.3 2188.94,3103.63C2184.9,3101.18 2180.96,3098.56 2177.14,3095.77C2172.21,3092.16 2167.49,3088.27 2163.03,3084.1C2157.24,3078.7 2151.89,3072.84 2147.05,3066.58C2143.94,3062.56 2141.05,3058.37 2138.37,3054.04C2135.57,3049.49 2133.01,3044.79 2130.71,3039.97C2127.37,3032.98 2124.58,3025.73 2122.32,3018.33C2120.47,3012.28 2118.99,3006.14 2117.84,2999.93C2117.38,2997.44 2116.97,2994.94 2116.62,2992.44C2114.15,2975.01 2114.26,2957.27 2116.23,2939.8C2117,2932.93 2118.07,2926.1 2119.38,2919.31C2121.32,2909.32 2123.79,2899.43 2126.71,2889.67C2129.18,2881.4 2131.97,2873.23 2135.02,2865.15C2139.06,2854.45 2143.57,2843.93 2148.45,2833.59C2153.4,2823.1 2158.74,2812.79 2164.39,2802.66C2173.01,2787.21 2182.37,2772.17 2192.32,2757.53C2198.75,2748.06 2205.42,2738.76 2212.29,2729.61C2223.32,2714.94 2234.89,2700.67 2246.89,2686.78C2259.12,2672.62 2271.81,2658.86 2284.89,2645.49C2298.58,2631.49 2312.69,2617.91 2327.17,2604.74C2340.05,2593.03 2353.21,2581.65 2366.65,2570.59L2366.65,2661.24C2355.29,2671.47 2344.18,2681.98 2333.34,2692.76C2320.16,2705.89 2307.38,2719.42 2295.09,2733.39C2285.3,2744.51 2275.82,2755.91 2266.72,2767.59C2260.41,2775.69 2254.29,2783.93 2248.37,2792.31C2244.15,2798.29 2240.03,2804.35 2236.03,2810.47C2224.6,2827.98 2214.1,2846.13 2205.06,2865C2199.97,2875.61 2195.36,2886.45 2191.38,2897.53C2187.22,2909.1 2183.74,2920.93 2181.29,2932.98C2179.61,2941.21 2178.42,2949.53 2177.86,2957.91C2177.39,2965.08 2177.39,2972.28 2178.01,2979.44C2178.45,2984.53 2179.2,2989.6 2180.32,2994.58C2181.36,2999.26 2182.73,3003.86 2184.44,3008.34C2186.68,3014.21 2189.54,3019.86 2192.99,3025.12C2195.21,3028.51 2197.68,3031.73 2200.37,3034.76C2202.18,3036.81 2204.1,3038.76 2206.1,3040.63C2207.47,3041.91 2208.89,3043.15 2210.34,3044.35C2219.41,3051.82 2229.84,3057.53 2240.75,3061.86C2242.5,3062.55 2244.26,3063.21 2246.03,3063.84C2248.18,3064.6 2250.36,3065.31 2252.54,3065.97C2255.04,3066.73 2257.57,3067.44 2260.1,3068.09C2263.79,3069.03 2267.52,3069.86 2271.26,3070.58C2275.78,3071.45 2280.32,3072.17 2284.88,3072.76C2290.83,3073.52 2296.81,3074.06 2302.8,3074.41C2310.51,3074.86 2318.23,3074.99 2325.95,3074.86C2335.57,3074.69 2345.19,3074.12 2354.77,3073.21C2367.14,3072.03 2379.45,3070.31 2391.68,3068.14C2407.5,3065.34 2423.18,3061.79 2438.7,3057.65C2458.52,3052.37 2478.08,3046.13 2497.36,3039.13C2518.14,3031.58 2538.59,3023.14 2558.71,3013.97C2584.49,3002.21 2609.72,2989.24 2634.36,2975.24C2640.78,2971.6 2647.15,2967.89 2653.49,2964.11C2657.5,2961.72 2661.5,2959.3 2665.48,2956.86L2666.34,2956.33L2666.96,2955.95C2668.77,2954.69 2670.58,2953.43 2672.39,2952.18C2681.94,2945.51 2691.39,2938.7 2700.72,2931.72C2703.94,2929.31 2707.15,2926.88 2710.35,2924.44C2711.29,2923.72 2712.23,2923 2713.17,2922.28C2713.91,2921.7 2714.64,2921.13 2715.38,2920.56C2716.33,2919.84 2717.27,2919.12 2718.21,2918.39C2724.39,2913.62 2730.53,2908.78 2736.61,2903.88C2748.4,2894.36 2759.99,2884.58 2771.36,2874.55C2778.13,2868.57 2784.81,2862.51 2791.42,2856.35C2793.87,2854.06 2796.31,2851.76 2798.73,2849.45C2800.18,2848.07 2801.63,2846.69 2803.07,2845.3C2804.07,2844.36 2805.06,2843.42 2806.05,2842.47C2808.18,2840.44 2810.3,2838.41 2812.41,2836.36C2816.34,2832.55 2820.22,2828.71 2824.08,2824.83C2837.96,2810.88 2851.41,2796.48 2864.32,2781.62C2872.39,2772.34 2880.26,2762.88 2887.89,2753.24C2889.97,2750.61 2892.03,2747.96 2894.08,2745.3C2895.67,2743.23 2897.25,2741.16 2898.82,2739.08L2899.24,2738.52C2899.64,2737.99 2900.04,2737.47 2900.45,2736.94C2900.97,2736.26 2901.49,2735.57 2902.01,2734.89C2904.94,2731 2907.85,2727.1 2910.7,2723.16C2915.66,2716.32 2920.48,2709.39 2925.16,2702.37C2928.83,2696.85 2932.41,2691.28 2935.89,2685.65C2937.62,2682.85 2939.31,2680.03 2941,2677.21C2941.41,2676.53 2941.81,2675.86 2942.22,2675.18C2944.55,2671.3 2946.84,2667.39 2949.07,2663.44C2953.38,2655.81 2957.49,2648.06 2961.34,2640.19C2964.13,2634.51 2966.78,2628.77 2969.28,2622.97C2970.1,2621.08 2970.9,2619.18 2971.68,2617.27C2972.2,2616.01 2972.7,2614.74 2973.22,2613.48C2974.01,2611.53 2974.79,2609.58 2975.55,2607.61C2977.51,2602.53 2979.35,2597.39 2981.03,2592.2C2982.86,2586.54 2984.51,2580.82 2985.95,2575.04C2987.03,2570.66 2987.99,2566.24 2988.8,2561.8C2989.41,2558.46 2989.93,2555.11 2990.35,2551.74C2990.68,2549.2 2990.94,2546.65 2991.15,2544.09C2991.32,2541.9 2991.45,2539.71 2991.54,2537.51C2991.6,2535.86 2991.63,2534.2 2991.64,2532.54C2991.67,2521.76 2990.44,2510.91 2987.34,2500.56C2986.76,2498.61 2986.12,2496.68 2985.4,2494.78C2984.53,2492.47 2983.57,2490.19 2982.5,2487.97C2981.11,2485.06 2979.54,2482.24 2977.8,2479.53C2976.36,2477.28 2974.8,2475.11 2973.13,2473.03C2971.9,2471.51 2970.62,2470.03 2969.29,2468.61C2967.11,2466.28 2964.79,2464.07 2962.36,2462.01C2959,2459.16 2955.42,2456.58 2951.68,2454.24C2946.84,2451.22 2941.73,2448.61 2936.48,2446.37C2930.29,2443.71 2923.89,2441.56 2917.39,2439.79C2909.89,2437.76 2902.24,2436.24 2894.55,2435.14C2885.97,2433.91 2877.33,2433.18 2868.67,2432.85C2865.62,2432.73 2862.57,2432.66 2859.51,2432.64C2858.51,2432.63 2857.5,2432.63 2856.49,2432.63C2851.95,2432.64 2847.41,2432.75 2842.87,2432.95C2834.34,2433.31 2825.83,2433.99 2817.35,2434.93L2817.35,2359.37ZM2674.69,2392.86L2674.69,2471.03C2660.07,2476.53 2645.63,2482.47 2631.35,2488.79C2614.72,2496.15 2598.32,2504.03 2582.15,2512.37L2581.7,2512.6L2558.28,2443.7C2577.12,2433.92 2596.26,2424.73 2615.69,2416.21C2635.06,2407.72 2654.74,2399.89 2674.69,2392.86Z" style="fill:url(#_Radial1);"/>
            </g>
        </g>
    </g>
    <defs>
        <radialGradient id="_Radial1" cx="0" cy="0" r="1" gradientUnits="userSpaceOnUse" gradientTransform="matrix(954.486,0,0,776.843,2114.76,2745.49)"><stop offset="0" style="stop-color:rgb(41,128,185);stop-opacity:1"/><stop offset="0.51" style="stop-color:rgb(41,107,185);stop-opacity:1"/><stop offset="1" style="stop-color:rgb(41,100,185);stop-opacity:1"/></radialGradient>
    </defs>
</svg>
