<?xml version="1.0" encoding="UTF-8" standalone="no"?>
<!DOCTYPE svg PUBLIC "-//W3C//DTD SVG 1.1//EN" "http://www.w3.org/Graphics/SVG/1.1/DTD/svg11.dtd">
<svg width="100%" height="100%" viewBox="0 0 2000 1000" version="1.1" xmlns="http://www.w3.org/2000/svg" xmlns:xlink="http://www.w3.org/1999/xlink" xml:space="preserve" style="fill-rule:evenodd;clip-rule:evenodd;stroke-linecap:round;stroke-linejoin:round;stroke-miterlimit:1.5;">
    <g transform="matrix(1,0,0,1,0,-2214)">
        <g id="Ring-Logo" transform="matrix(1,0,0,1.33333,0,-738)">
            <rect x="0" y="2214" width="2000" height="750" style="fill:none;"/>
            <g transform="matrix(9.03423,0,0,6.77567,-4951.45,-16031.3)">
                <path d="M569.289,2771.44L569.289,2733.05L584.764,2771.44L588.289,2771.44L588.289,2724.78L584.83,2724.78L584.83,2762.91L569.556,2724.78L565.83,2724.78L565.83,2771.44L569.289,2771.44Z" style="fill-rule:nonzero;"/>
            </g>
            <g transform="matrix(9.03423,0,0,6.77567,-4951.45,-16031.3)">
                <path d="M618.289,2724.78L614.697,2724.78L614.697,2760.92C614.697,2766.45 612.896,2768.65 607.626,2768.65C602.356,2768.65 600.555,2766.45 600.555,2760.92L600.555,2724.78L596.964,2724.78L596.964,2762.12C596.964,2768.85 600.422,2771.97 607.493,2771.97L607.76,2771.97C614.83,2771.97 618.289,2768.78 618.289,2762.12L618.289,2724.78Z" style="fill-rule:nonzero;"/>
            </g>
            <g transform="matrix(1,0,0,0.75,0,553.5)">
                <path d="M1356.45,2924.76C1356.45,2924.76 1189.09,2924.76 1189.09,2924.76C1189.09,2924.76 1356.45,2924.76 1356.45,2924.76ZM1221.54,2726.01L1335.97,2726.01C1335.97,2726.01 1221.54,2726.01 1221.54,2726.01L1221.54,2726.01ZM1221.54,2677L1189.09,2677L1189.09,2503.24L1354.64,2503.24L1354.64,2533.28L1221.54,2533.28L1221.54,2677Z"/>
            </g>
            <g transform="matrix(9.03423,0,0,6.77567,-4951.45,-16031.3)">
                <path d="M648.155,2752.98L644.564,2752.98L644.564,2760.92C644.564,2766.38 642.629,2768.65 637.426,2768.65C632.223,2768.65 630.289,2766.38 630.289,2760.92L630.289,2735.31C630.289,2729.84 632.223,2727.58 637.426,2727.58C642.629,2727.58 644.564,2729.84 644.564,2735.31L644.564,2742.11L648.155,2742.11L648.155,2734.11C648.155,2727.71 644.564,2724.25 637.493,2724.25L637.36,2724.25C630.289,2724.25 626.697,2727.71 626.697,2734.11L626.697,2762.12C626.697,2768.85 630.289,2771.97 637.36,2771.97L637.493,2771.97C644.564,2771.97 648.155,2768.78 648.155,2762.12L648.155,2752.98Z" style="fill-rule:nonzero;"/>
            </g>
            <g transform="matrix(9.03423,0,0,6.77567,-4951.45,-16031.3)">
                <path d="M673.955,2768.12L660.022,2768.12L660.022,2724.78L656.43,2724.78L656.43,2771.44L673.955,2771.44L673.955,2768.12Z" style="fill-rule:nonzero;"/>
            </g>
            <g transform="matrix(1,0,0,0.75,0,553.5)">
                <path d="M1016,2562.26C1032.07,2548.41 1048.56,2535.05 1065.41,2522.18C1087.85,2505.05 1110.94,2488.78 1134.61,2473.41C1155.04,2460.14 1175.9,2447.53 1197.18,2435.66C1221.07,2422.33 1245.49,2409.94 1270.4,2398.64C1292.9,2388.43 1315.81,2379.13 1339.11,2370.91C1349.3,2367.31 1359.56,2363.93 1369.9,2360.77C1374.72,2359.3 1379.56,2357.89 1384.4,2356.52C1386.58,2355.9 1388.77,2355.3 1390.95,2354.72C1395.27,2353.55 1399.6,2352.43 1403.95,2351.36C1416.15,2348.33 1428.45,2345.67 1440.83,2343.43C1454.99,2340.86 1469.26,2338.83 1483.59,2337.49C1496.52,2336.28 1509.5,2335.61 1522.49,2335.63C1537.75,2335.65 1553.03,2336.61 1568.14,2338.8C1580.81,2340.64 1593.37,2343.35 1605.6,2347.14C1614.68,2349.95 1623.57,2353.36 1632.15,2357.44C1641.52,2361.9 1650.52,2367.17 1658.92,2373.28C1665.13,2377.81 1671.02,2382.79 1676.47,2388.21C1677.86,2389.59 1679.22,2391.01 1680.55,2392.45C1683.24,2395.36 1685.81,2398.38 1688.25,2401.5C1693.86,2408.7 1698.79,2416.43 1702.94,2424.55C1706.22,2430.94 1709.02,2437.57 1711.35,2444.36C1713.11,2449.48 1714.6,2454.69 1715.83,2459.96C1716.73,2463.81 1717.49,2467.7 1718.12,2471.6C1718.59,2474.55 1718.99,2477.5 1719.31,2480.47C1721.42,2499.66 1720.48,2519.1 1717.43,2538.13C1716.98,2540.94 1716.49,2543.74 1715.95,2546.52C1715.27,2550.05 1714.52,2553.57 1713.7,2557.07C1712.59,2561.89 1711.35,2566.67 1710,2571.42C1708.26,2577.55 1706.34,2583.63 1704.26,2589.66C1702.07,2596.02 1699.69,2602.32 1697.17,2608.55C1697.02,2608.93 1696.86,2609.3 1696.7,2609.68C1696.47,2610.22 1696.25,2610.76 1696.02,2611.3C1695.25,2613.12 1694.47,2614.92 1693.68,2616.73C1688.7,2628.04 1683.24,2639.14 1677.38,2650.02C1673.59,2657.07 1669.63,2664.03 1665.53,2670.9C1664.21,2673.11 1662.88,2675.31 1661.53,2677.5C1661.07,2678.24 1660.62,2678.97 1660.16,2679.71C1659.93,2680.08 1659.7,2680.46 1659.47,2680.83C1657.12,2684.5 1654.74,2688.15 1652.32,2691.77C1643.32,2705.26 1633.79,2718.39 1623.84,2731.2C1621.28,2734.5 1618.68,2737.78 1616.07,2741.03C1614.6,2742.86 1613.12,2744.68 1611.64,2746.49L1611.2,2747.03C1601.51,2758.6 1591.49,2769.89 1581.19,2780.91C1571.04,2791.76 1560.61,2802.35 1549.93,2812.7C1539.69,2822.62 1529.21,2832.32 1518.54,2841.79C1515.05,2844.88 1511.54,2847.95 1508.01,2850.99C1506.11,2852.64 1504.2,2854.27 1502.28,2855.9C1501.81,2856.3 1501.34,2856.69 1500.87,2857.08C1499.66,2858.08 1498.45,2859.08 1497.24,2860.08C1493.58,2863.09 1489.91,2866.07 1486.22,2869.03C1475.41,2877.68 1464.43,2886.13 1453.3,2894.35C1442.84,2902.07 1432.25,2909.6 1421.53,2916.94C1417.92,2919.41 1414.3,2921.86 1410.67,2924.28C1409.3,2925.2 1407.93,2926.11 1406.56,2927.01C1406.06,2927.35 1405.55,2927.68 1405.05,2928.01C1394.45,2934.9 1383.73,2941.62 1372.89,2948.15C1366.84,2951.8 1360.74,2955.4 1354.61,2958.93C1353.5,2959.57 1352.39,2960.2 1351.28,2960.83C1350.81,2961.13 1350.34,2961.44 1349.86,2961.74C1347.52,2963.23 1345.16,2964.72 1342.81,2966.19C1339.99,2967.96 1337.17,2969.7 1334.34,2971.44C1318.16,2981.35 1301.73,2990.84 1285.05,2999.86C1269,3008.54 1252.72,3016.79 1236.21,3024.56C1220.4,3032 1204.38,3039 1188.16,3045.5C1172.69,3051.7 1157.04,3057.44 1141.22,3062.65C1129.13,3066.63 1116.95,3070.3 1104.67,3073.61C1092.93,3076.78 1081.1,3079.62 1069.18,3082.09C1058.23,3084.36 1047.2,3086.32 1036.12,3087.9C1026.13,3089.32 1016.11,3090.44 1006.05,3091.21C996.822,3091.91 987.571,3092.31 978.317,3092.37C971.426,3092.41 964.533,3092.25 957.652,3091.87C952.043,3091.56 946.441,3091.11 940.857,3090.49C936.605,3090.02 932.364,3089.45 928.139,3088.79C924.99,3088.29 921.849,3087.73 918.72,3087.12C916.285,3086.64 913.858,3086.12 911.439,3085.57C895.395,3081.89 879.691,3076.5 865.048,3068.94C862.741,3067.75 860.461,3066.5 858.213,3065.2C855.195,3063.46 852.235,3061.62 849.34,3059.67C845.47,3057.08 841.719,3054.3 838.111,3051.35C833.015,3047.18 828.206,3042.66 823.749,3037.82C817.533,3031.06 812.008,3023.67 807.284,3015.8C804.127,3010.54 801.327,3005.07 798.89,2999.44C796.29,2993.43 794.102,2987.25 792.319,2980.96C789.87,2972.31 788.186,2963.45 787.19,2954.52C786.4,2947.43 786.042,2940.3 786.063,2933.17L786.264,2933.19C789.075,2933.5 791.894,2933.73 794.717,2933.9C798.672,2934.13 802.634,2934.23 806.596,2934.24C808.012,2934.24 809.428,2934.24 810.844,2934.22C813.313,2934.18 815.781,2934.1 818.246,2933.97C821.324,2933.81 824.398,2933.57 827.462,2933.24C827.898,2933.2 828.334,2933.15 828.77,2933.1C828.661,2938.17 828.795,2943.24 829.211,2948.29C829.667,2953.83 830.463,2959.34 831.65,2964.76C832.852,2970.26 834.457,2975.68 836.495,2980.92C839.093,2987.61 842.398,2994.03 846.401,2999.98C849.078,3003.97 852.062,3007.74 855.314,3011.27C857.529,3013.67 859.867,3015.96 862.311,3018.13C863.998,3019.63 865.735,3021.07 867.516,3022.46C868.81,3023.47 870.128,3024.44 871.467,3025.39C881.309,3032.34 892.243,3037.66 903.583,3041.69C905.524,3042.38 907.479,3043.03 909.444,3043.65C911.972,3044.45 914.517,3045.18 917.078,3045.86C920.257,3046.71 923.459,3047.47 926.676,3048.15C930.87,3049.05 935.091,3049.81 939.329,3050.45C944.674,3051.27 950.046,3051.9 955.432,3052.37C962.57,3052.99 969.731,3053.33 976.894,3053.43C982.778,3053.51 988.664,3053.43 994.544,3053.21C997.671,3053.1 1000.8,3052.94 1003.92,3052.74C1007.48,3052.52 1011.04,3052.25 1014.59,3051.93C1023.08,3051.18 1031.55,3050.16 1039.99,3048.93C1055.71,3046.62 1071.32,3043.54 1086.78,3039.85C1107.86,3034.82 1128.67,3028.66 1149.17,3021.63C1174.21,3013.03 1198.79,3003.13 1222.89,2992.18C1249.38,2980.15 1275.28,2966.85 1300.58,2952.49C1307.06,2948.81 1313.5,2945.06 1319.89,2941.25C1324.52,2938.49 1329.12,2935.69 1333.71,2932.87C1334.6,2932.25 1335.5,2931.63 1336.39,2931.01C1337.72,2930.08 1339.06,2929.16 1340.39,2928.23C1342.16,2926.99 1343.93,2925.75 1345.69,2924.5C1351.83,2920.15 1357.92,2915.74 1363.97,2911.26C1368.26,2908.09 1372.53,2904.89 1376.77,2901.65C1378.03,2900.68 1379.3,2899.71 1380.56,2898.74C1381.4,2898.09 1382.24,2897.44 1383.08,2896.79C1383.92,2896.15 1384.76,2895.5 1385.6,2894.86C1390.6,2890.99 1395.58,2887.09 1400.52,2883.14C1410.27,2875.34 1419.88,2867.37 1429.35,2859.22C1439.02,2850.91 1448.53,2842.41 1457.87,2833.74C1462.28,2829.65 1466.65,2825.51 1470.99,2821.34C1471.35,2820.99 1471.72,2820.65 1472.08,2820.31C1472.8,2819.63 1473.52,2818.94 1474.24,2818.26C1476.39,2816.2 1478.54,2814.14 1480.67,2812.07C1484.9,2807.97 1489.09,2803.82 1493.24,2799.64C1512.81,2779.91 1531.53,2759.32 1549.12,2737.8C1553.38,2732.6 1557.57,2727.34 1561.69,2722.03C1563.85,2719.24 1565.98,2716.44 1568.1,2713.63L1568.5,2713.1C1568.9,2712.58 1569.29,2712.06 1569.69,2711.54C1570.22,2710.85 1570.75,2710.15 1571.27,2709.46C1573.62,2706.36 1575.94,2703.25 1578.23,2700.12C1583.21,2693.32 1588.06,2686.43 1592.77,2679.45C1597.08,2673.05 1601.28,2666.56 1605.34,2660C1607.21,2656.98 1609.05,2653.94 1610.87,2650.89C1611.28,2650.22 1611.68,2649.54 1612.09,2648.86C1614.47,2644.9 1616.8,2640.91 1619.07,2636.89C1624.5,2627.28 1629.6,2617.5 1634.31,2607.53C1636.47,2602.96 1638.54,2598.36 1640.51,2593.71C1641.18,2592.15 1641.83,2590.58 1642.47,2589.01C1642.66,2588.54 1642.85,2588.07 1643.04,2587.6C1643.17,2587.28 1643.3,2586.96 1643.43,2586.64C1644.37,2584.35 1645.29,2582.05 1646.18,2579.74C1648.03,2574.95 1649.77,2570.11 1651.38,2565.23C1654.72,2555.07 1657.52,2544.72 1659.54,2534.21C1661.27,2525.23 1662.43,2516.13 1662.81,2506.99C1663.33,2494.39 1662.35,2481.67 1659.14,2469.46C1657.1,2461.68 1654.15,2454.13 1650.22,2447.11C1647.73,2442.66 1644.85,2438.44 1641.62,2434.51C1639.36,2431.76 1636.93,2429.15 1634.37,2426.69C1632.67,2425.06 1630.91,2423.5 1629.1,2422C1627.86,2420.98 1626.6,2419.99 1625.31,2419.04C1616.17,2412.23 1605.91,2407.02 1595.25,2403.06C1593.43,2402.39 1591.61,2401.75 1589.77,2401.14C1587.51,2400.4 1585.24,2399.71 1582.96,2399.07C1579.97,2398.22 1576.95,2397.46 1573.92,2396.77C1570.08,2395.89 1566.22,2395.14 1562.34,2394.49C1557.4,2393.66 1552.43,2393.01 1547.45,2392.5C1540.94,2391.84 1534.4,2391.42 1527.86,2391.23C1519.55,2390.97 1511.22,2391.07 1502.91,2391.45C1492.37,2391.92 1481.85,2392.86 1471.39,2394.16C1456.99,2395.96 1442.69,2398.45 1428.51,2401.5C1421.78,2402.94 1415.07,2404.51 1408.4,2406.19C1405.26,2406.98 1402.14,2407.8 1399.02,2408.63C1390.69,2410.86 1382.4,2413.25 1374.17,2415.8C1349.8,2423.34 1325.86,2432.22 1302.36,2442.13C1287.56,2448.38 1272.93,2455.04 1258.48,2462.08C1243.4,2469.42 1228.51,2477.17 1213.83,2485.29C1193.41,2496.57 1173.39,2508.56 1153.77,2521.19C1129.45,2536.85 1105.75,2553.49 1082.79,2571.09C1061.89,2587.11 1041.6,2603.92 1022.01,2621.52C1020,2623.34 1018,2625.15 1016,2626.98L1016,2562.26ZM974.235,2600.28L974.235,2667.64C972.859,2669.07 971.489,2670.5 970.124,2671.94C957.229,2685.51 944.773,2699.51 932.855,2713.96C922.323,2726.72 912.209,2739.83 902.619,2753.32L871.685,2753.32L869.903,2753.67L868.392,2754.68C867.39,2756.18 867.38,2756.21 867.028,2757.98L867.028,2810.01C864.884,2813.97 862.798,2817.97 860.774,2821.99C854.397,2834.68 848.638,2847.69 843.761,2861.03C840.11,2871.01 836.95,2881.18 834.467,2891.52C831.523,2892.41 828.508,2893.07 825.474,2893.56C824.159,2893.78 822.839,2893.96 821.515,2894.12C819.643,2894.34 817.764,2894.5 815.883,2894.62C812.29,2894.85 808.686,2894.92 805.086,2894.87C800.711,2894.81 796.333,2894.56 791.991,2894.01C791.248,2893.91 790.505,2893.81 789.764,2893.69L789.765,2893.69C792.277,2879.58 795.929,2865.69 800.409,2852.09C804.041,2841.06 808.22,2830.22 812.83,2819.56C817.935,2807.76 823.57,2796.19 829.622,2784.85C843.991,2757.93 860.689,2732.28 878.871,2707.78C890.381,2692.27 902.499,2677.22 915.109,2662.59C928.675,2646.86 942.812,2631.62 957.426,2616.85C962.962,2611.26 968.566,2605.74 974.235,2600.28Z" style="fill:url(#_Radial1);"/>
            </g>
            <g transform="matrix(1,0,0,0.75,0,553.5)">
                <path d="M1611.82,2764.03L1611.82,2840.52C1611.82,2900.74 1580.57,2929.58 1516.69,2929.58L1514.28,2929.58C1485.77,2929.58 1463.76,2923.95 1448.13,2912.32C1450.81,2910.39 1453.49,2908.46 1456.15,2906.51C1462.84,2901.62 1469.46,2896.65 1476.03,2891.61C1485.7,2897.05 1498.63,2899.54 1515.49,2899.54C1563.1,2899.54 1579.37,2879.66 1579.37,2829.68L1579.37,2799.49C1586.79,2791.82 1594.07,2784.01 1601.2,2776.07C1604.78,2772.09 1608.32,2768.08 1611.82,2764.03ZM1419.16,2503.24L1451.61,2503.24L1451.61,2823.88C1444.46,2830.54 1437.22,2837.09 1429.89,2843.53C1426.48,2846.53 1423.04,2849.51 1419.59,2852.46C1419.3,2848.63 1419.16,2844.65 1419.16,2840.52L1419.16,2503.24ZM1579.37,2678.7L1579.37,2503.24L1611.82,2503.24L1611.82,2626.31C1611.07,2627.66 1610.32,2629.01 1609.57,2630.36C1607.19,2634.59 1604.74,2638.78 1602.24,2642.95C1601.84,2643.62 1601.43,2644.3 1601.02,2644.97C1599.11,2648.18 1597.18,2651.38 1595.2,2654.55C1591.58,2660.39 1587.86,2666.15 1584.03,2671.85C1582.49,2674.14 1580.94,2676.43 1579.37,2678.7Z"/>
            </g>
            <g transform="matrix(1,0,0,0.75,0,553.5)">
                <path d="M1221.54,2695.97L1335.97,2695.97L1335.97,2726.01L1221.54,2726.01L1221.54,2894.72L1356.45,2894.72L1356.45,2902.54L1356.02,2902.86C1350.4,2907.01 1344.75,2911.09 1339.05,2915.13C1335.19,2917.86 1331.31,2920.56 1327.43,2923.25L1326.84,2923.61C1326.21,2923.99 1325.59,2924.38 1324.96,2924.76L1189.09,2924.76L1189.09,2677L1221.54,2677L1221.54,2695.97Z"/>
            </g>
            <g transform="matrix(1,0,0,0.75,0,553.5)">
                <path d="M1714.2,2596.03L1714.2,2624.24C1714.2,2655.57 1725.05,2664 1756.99,2680.87L1821.47,2716.41C1850.97,2732.07 1872,2755.57 1872,2787.49L1872,2841.71C1872,2901.95 1841.35,2929.58 1777.48,2929.58L1776.28,2929.58C1712.4,2929.58 1681.76,2902.55 1681.76,2841.71L1681.76,2773.04L1714.2,2773.04L1714.2,2832.07C1714.2,2877.85 1731.08,2900.14 1776.88,2900.14C1822.68,2900.14 1839.55,2877.85 1839.55,2832.07L1839.55,2798.34C1839.55,2767.01 1826.9,2756.17 1794.96,2738.1L1731.68,2703.76C1706.76,2689.57 1691.97,2677.22 1685.56,2659.03C1685.84,2658.52 1686.12,2658 1686.4,2657.49C1692.15,2646.91 1697.55,2636.13 1702.5,2625.16C1703.69,2622.51 1704.86,2619.85 1706,2617.18C1706.44,2616.16 1706.87,2615.14 1707.29,2614.12C1707.42,2613.82 1707.55,2613.52 1707.67,2613.22C1707.97,2612.5 1708.25,2611.78 1708.54,2611.06C1708.94,2610.06 1709.34,2609.05 1709.73,2608.04C1711.15,2604.41 1712.52,2600.76 1713.83,2597.09L1714.2,2596.03ZM1776.88,2498.42C1834.73,2498.42 1870.8,2527.26 1870.8,2585.09L1870.8,2648.94L1838.35,2648.94L1838.35,2594.72C1838.35,2548.34 1821.47,2527.86 1776.28,2527.86C1753.51,2527.86 1737.93,2533.05 1728.07,2544.14C1728.15,2543.66 1728.24,2543.18 1728.32,2542.69C1730.42,2530.39 1731.69,2517.92 1731.9,2505.43C1744.51,2500.76 1759.21,2498.42 1775.67,2498.42L1776.88,2498.42Z"/>
            </g>
            <g transform="matrix(1,0,0,0.75,0,553.5)">
                <path d="M1591.37,2769.8L1676,2832C1636.47,2853.95 1570.73,2861.12 1496.83,2860.41L1497.24,2860.08C1498.45,2859.08 1499.66,2858.08 1500.87,2857.08C1501.34,2856.69 1501.81,2856.3 1502.28,2855.9C1504.2,2854.27 1506.11,2852.64 1508.01,2850.99C1511.54,2847.95 1515.05,2844.88 1518.54,2841.79C1529.21,2832.32 1539.69,2822.62 1549.93,2812.7C1560.61,2802.35 1571.04,2791.76 1581.19,2780.91C1584.61,2777.24 1588.01,2773.55 1591.37,2769.8Z" style="fill:none;stroke:rgb(41,128,185);stroke-width:0.11px;"/>
            </g>
            <g transform="matrix(1,0,0,0.75,0,553.5)">
                <path d="M1031.46,2549.22C1028.88,2452.32 1036.18,2368.81 1061,2380L1163.46,2455.31C1153.75,2461.18 1144.13,2467.22 1134.61,2473.41C1110.94,2488.78 1087.85,2505.05 1065.41,2522.18C1053.91,2530.96 1042.58,2539.97 1031.46,2549.22Z" style="fill:none;stroke:rgb(41,128,185);stroke-width:0.11px;"/>
            </g>
            <g transform="matrix(1,0,0,0.75,0,553.5)">
                <path d="M1548.63,2738.39L1591.37,2769.8C1588.01,2773.55 1584.61,2777.24 1581.19,2780.91C1571.04,2791.76 1560.61,2802.35 1549.93,2812.7C1539.69,2822.62 1529.21,2832.32 1518.54,2841.79C1515.05,2844.88 1511.54,2847.95 1508.01,2850.99C1506.11,2852.64 1504.2,2854.27 1502.28,2855.9C1501.81,2856.3 1501.34,2856.69 1500.87,2857.08C1499.66,2858.08 1498.45,2859.08 1497.24,2860.08L1496.83,2860.41C1475.32,2860.23 1453.11,2859.39 1430.67,2858.07C1439.91,2850.11 1448.97,2842.01 1457.87,2833.74C1462.28,2829.65 1466.65,2825.51 1470.99,2821.34C1471.35,2820.99 1471.72,2820.65 1472.08,2820.31C1472.8,2819.63 1473.52,2818.94 1474.24,2818.26C1476.39,2816.2 1478.54,2814.14 1480.67,2812.07C1484.9,2807.97 1489.09,2803.82 1493.24,2799.64C1512.63,2780.1 1531.18,2759.7 1548.63,2738.39Z" style="fill:none;stroke:rgb(41,128,185);stroke-width:0.11px;"/>
            </g>
            <g transform="matrix(1,0,0,0.75,0,553.5)">
                <path d="M1163.46,2455.31L1208.41,2488.34C1189.85,2498.71 1171.64,2509.69 1153.77,2521.19C1129.45,2536.85 1105.75,2553.49 1082.79,2571.09C1066.21,2583.8 1050,2597.01 1034.29,2610.72C1032.96,2590.13 1032,2569.39 1031.46,2549.22C1042.58,2539.97 1053.91,2530.96 1065.41,2522.18C1087.85,2505.05 1110.94,2488.78 1134.61,2473.41C1144.13,2467.22 1153.75,2461.18 1163.46,2455.31Z" style="fill:none;stroke:rgb(41,128,185);stroke-width:0.11px;"/>
            </g>
        </g>
    </g>
    <defs>
        <radialGradient id="_Radial1" cx="0" cy="0" r="1" gradientUnits="userSpaceOnUse" gradientTransform="matrix(934.386,0,0,756.744,786.062,2714)"><stop offset="0" style="stop-color:rgb(41,128,185);stop-opacity:1"/><stop offset="0.51" style="stop-color:rgb(41,107,185);stop-opacity:1"/><stop offset="1" style="stop-color:rgb(41,100,185);stop-opacity:1"/></radialGradient>
    </defs>
</svg>
